<svg width="141" height="40" viewBox="0 0 141 40" fill="none" xmlns="http://www.w3.org/2000/svg">
<rect width="141" height="40" rx="4" fill="#033884"/>
<rect x="0.5" y="0.5" width="140" height="39" rx="3.5" stroke="url(#paint0_linear_5811_35655)" stroke-opacity="0.5"/>
<path d="M39.5481 15.1159C39.1519 14.8186 38.3594 14.4223 36.7745 14.026C36.2792 13.9269 35.7839 13.8278 35.1895 13.7287C34.397 13.6296 33.6045 13.5305 32.5149 13.4314H32.4158C32.2177 12.936 32.0196 12.4406 31.8214 11.9452C31.7224 11.6479 31.6233 11.3506 31.4252 11.0534V10.9543C31.029 9.86435 30.5337 8.77441 29.7412 7.78355C28.7506 6.59452 27.5619 6 26.3731 6C25.1844 6 23.9957 6.59452 23.1041 7.68446C22.2126 8.67532 21.8164 9.86435 21.3211 10.9543V11.0534C21.222 11.3506 21.0239 11.6479 20.9248 11.9452C20.7267 12.4406 20.5286 12.936 20.3305 13.4314H20.2314C19.2408 13.5305 18.3493 13.6296 17.5568 13.7287C16.9624 13.8278 16.368 13.9269 15.9718 14.026C14.3868 14.4223 13.5944 14.8186 13.1981 15.1159C13.0991 15.215 13 15.4132 13 15.6113L13.0991 16.6022C13.2972 18.0885 13.4953 19.7729 13.8915 21.5565C14.1887 22.9437 14.4859 24.3309 14.9812 25.619C15.1793 26.1144 15.3774 26.6099 15.5756 27.1053C17.1605 30.2761 20.0333 32.6541 23.5994 33.4468C24.491 33.645 25.3825 33.7441 26.3731 33.7441C27.2647 33.7441 28.2553 33.645 29.1468 33.4468C32.713 32.6541 35.6848 30.177 37.2698 26.9071C37.4679 26.5108 37.666 26.1144 37.7651 25.7181C38.8547 22.7455 39.251 19.5748 39.6472 16.9985L39.7463 15.6113C39.7463 15.4132 39.6472 15.215 39.5481 15.1159ZM26.3731 13.1342C25.0854 13.1342 23.9957 13.1342 23.0051 13.2333C23.1041 13.1342 23.1041 12.936 23.2032 12.8369C23.3023 12.5397 23.5004 12.2424 23.5994 11.9452C23.8966 11.2516 24.1938 10.558 24.491 9.96344C24.6891 9.66618 24.7882 9.46801 24.9863 9.17075C25.2835 8.87349 25.7788 8.37806 26.4722 8.37806C27.1656 8.37806 27.6609 8.87349 27.9581 9.17075C28.1562 9.36892 28.3543 9.66618 28.4534 9.96344C28.7506 10.558 29.0478 11.2516 29.3449 11.9452C29.444 12.2424 29.5431 12.5397 29.7412 12.8369C29.8402 12.936 29.8402 13.1342 29.9393 13.2333C28.7506 13.2333 27.6609 13.1342 26.3731 13.1342Z" fill="url(#paint1_linear_5811_35655)"/>
<path d="M89.6716 25.1236C89.6716 25.619 89.4735 25.9163 89.1763 26.2136C88.8791 26.5108 88.3838 26.6099 87.6904 26.6099H86.997L87.1951 27.6998H88.0866C88.4829 27.6998 88.8791 27.6008 89.1763 27.5017C89.4735 27.4026 89.7707 27.1053 89.9688 26.9072C90.1669 26.6099 90.365 26.3126 90.4641 26.0154C90.5632 25.619 90.6622 25.3218 90.6622 24.9254V21.8538H89.5726V25.1236H89.6716Z" fill="white"/>
<path d="M90.266 18.98C90.0678 18.98 89.8697 19.0791 89.6716 19.1782C89.4735 19.3764 89.4735 19.4754 89.4735 19.7727C89.4735 19.9709 89.5725 20.169 89.6716 20.3672C89.8697 20.5654 90.0678 20.5654 90.266 20.5654C90.4641 20.5654 90.6622 20.4663 90.8603 20.3672C91.0584 20.169 91.0584 19.9709 91.0584 19.7727C91.0584 19.5745 90.9594 19.3764 90.8603 19.1782C90.6622 19.0791 90.4641 18.98 90.266 18.98Z" fill="white"/>
<path d="M93.4359 18.2871H92.4453V25.0249H93.4359V18.2871Z" fill="white"/>
<path d="M100.37 20.8626C100.568 20.8626 100.667 20.7635 100.865 20.6644C100.964 20.5653 101.063 20.3671 101.063 20.169C101.063 19.9708 100.964 19.7726 100.865 19.6735C100.766 19.5744 100.568 19.4754 100.37 19.4754C100.172 19.4754 99.9737 19.5744 99.8746 19.6735C99.7755 19.7726 99.6765 19.9708 99.6765 20.169C99.6765 20.3671 99.7755 20.4662 99.8746 20.6644C99.9737 20.7635 100.172 20.8626 100.37 20.8626Z" fill="white"/>
<path d="M102.252 20.8626C102.451 20.8626 102.649 20.7635 102.748 20.6644C102.847 20.5653 102.946 20.3671 102.946 20.169C102.946 19.9708 102.847 19.7726 102.748 19.6735C102.649 19.5744 102.451 19.4754 102.252 19.4754C102.054 19.4754 101.856 19.5744 101.757 19.6735C101.658 19.7726 101.559 19.9708 101.559 20.169C101.559 20.3671 101.658 20.4662 101.757 20.6644C101.856 20.7635 102.054 20.8626 102.252 20.8626Z" fill="white"/>
<path d="M109.384 19.377C109.583 19.377 109.781 19.2779 109.979 19.1788C110.177 18.9807 110.177 18.7825 110.177 18.5843C110.177 18.3861 110.078 18.188 109.979 17.9898C109.781 17.7916 109.682 17.7916 109.384 17.7916C109.186 17.7916 108.988 17.8907 108.79 17.9898C108.592 18.188 108.592 18.2871 108.592 18.5843C108.592 18.7825 108.691 18.9807 108.79 19.1788C108.988 19.2779 109.186 19.377 109.384 19.377Z" fill="white"/>
<path d="M110.97 20.5657C110.772 20.3675 110.573 20.1694 110.375 20.0703C110.177 19.9712 109.88 19.8721 109.583 19.8721C109.286 19.8721 109.088 19.8721 108.889 19.9712C108.691 20.0703 108.493 20.1694 108.295 20.3675C108.097 20.5657 107.998 20.6648 107.899 20.9621C107.8 21.1602 107.8 21.3584 107.8 21.6557C107.8 22.1511 107.899 22.4484 108.097 22.7456C108.295 23.0429 108.691 23.241 109.088 23.241H110.474C110.474 23.4392 110.474 23.5383 110.375 23.7365C110.276 23.8356 110.078 23.9346 109.781 23.9346H106.809C106.611 23.9346 106.413 23.8356 106.215 23.7365C106.017 23.6374 105.918 23.4392 105.918 23.142V21.6557H104.828V23.142C104.828 23.4392 104.828 23.6374 104.729 23.7365C104.63 23.8356 104.432 23.9346 104.135 23.9346H99.0825C98.7853 23.9346 98.5872 23.8356 98.4881 23.7365C98.29 23.6374 98.1909 23.4392 98.1909 23.142V21.7548H97.1013V23.3401C97.1013 23.8356 97.2003 24.331 97.4975 24.6282C97.7947 24.9255 98.0919 25.0246 98.5872 25.0246H104.135C104.531 25.0246 104.828 24.9255 105.125 24.6282C105.323 24.8264 105.521 24.9255 105.819 24.9255C106.017 25.0246 106.314 25.0246 106.611 25.0246H109.781C110.078 25.0246 110.276 24.9255 110.474 24.8264C110.673 24.7273 110.871 24.5292 110.97 24.331C111.069 24.1328 111.168 23.9346 111.267 23.6374C111.366 23.3401 111.366 23.142 111.366 22.8447V22.1511C111.366 21.8538 111.366 21.5566 111.267 21.3584C111.168 21.0612 111.069 20.7639 110.97 20.5657ZM109.286 22.1511C109.187 22.1511 108.989 22.1511 108.79 22.052C108.592 21.9529 108.592 21.8538 108.592 21.6557C108.592 21.4575 108.691 21.2593 108.79 21.1602C108.889 21.0612 109.088 20.9621 109.385 20.9621C109.583 20.9621 109.682 20.9621 109.781 21.0611C109.88 21.1602 109.979 21.2593 110.078 21.3584C110.177 21.4575 110.276 21.6557 110.276 21.7548C110.375 21.9529 110.375 22.052 110.375 22.2502L109.286 22.1511Z" fill="white"/>
<path d="M115.229 26.214C115.031 26.214 114.833 26.3131 114.734 26.4122C114.635 26.5112 114.536 26.7094 114.536 26.9076C114.536 27.1058 114.635 27.3039 114.734 27.403C114.833 27.5021 115.031 27.6012 115.229 27.6012C115.427 27.6012 115.625 27.5021 115.724 27.403C115.823 27.3039 115.922 27.1058 115.922 26.9076C115.922 26.7094 115.823 26.6103 115.724 26.4122C115.625 26.214 115.427 26.214 115.229 26.214Z" fill="white"/>
<path d="M117.309 23.1423C117.309 23.2414 117.309 23.3405 117.309 23.4396C117.309 23.5387 117.309 23.6377 117.21 23.7368C117.111 23.8359 117.111 23.8359 117.012 23.935C116.913 23.935 116.814 24.0341 116.616 24.0341H114.932C114.635 24.0341 114.536 23.935 114.337 23.8359C114.238 23.7368 114.139 23.5387 114.139 23.1423V18.2871H113.05V23.3405C113.05 23.935 113.248 24.4304 113.545 24.6286C113.842 24.9259 114.238 25.0249 114.833 25.0249H116.913C117.408 25.0249 117.805 24.8268 118.102 24.5295C118.399 24.2323 118.498 23.8359 118.498 23.3405V21.7551H117.408V23.1423H117.309Z" fill="white"/>
<path d="M117.012 26.214C116.814 26.214 116.616 26.3131 116.517 26.4122C116.417 26.5112 116.318 26.7094 116.318 26.9076C116.318 27.1058 116.417 27.3039 116.517 27.403C116.616 27.5021 116.814 27.6012 117.012 27.6012C117.21 27.6012 117.309 27.5021 117.507 27.403C117.606 27.3039 117.705 27.1058 117.705 26.9076C117.705 26.7094 117.606 26.6103 117.507 26.4122C117.408 26.214 117.21 26.214 117.012 26.214Z" fill="white"/>
<path d="M120.776 25.1236C120.776 25.619 120.578 25.9163 120.281 26.2136C119.984 26.5108 119.489 26.6099 118.795 26.6099H118.498L118.696 27.6998H119.191C119.588 27.6998 119.984 27.6008 120.281 27.5017C120.578 27.4026 120.875 27.2044 121.074 26.9072C121.272 26.6099 121.47 26.3126 121.569 26.0154C121.668 25.619 121.767 25.3218 121.767 24.9254V21.8538H120.677V25.1236H120.776Z" fill="white"/>
<path d="M128.107 23.0425C128.008 22.8443 127.909 22.6462 127.71 22.448L125.333 19.9708L124.64 20.6644L127.017 23.1416C127.116 23.2407 127.215 23.4388 127.215 23.5379C127.215 23.637 127.215 23.7361 127.116 23.8352C127.017 23.9343 126.918 23.9343 126.72 23.9343H123.253L123.352 25.0242H126.621C127.116 25.0242 127.512 24.9251 127.809 24.6279C128.107 24.3306 128.206 24.0334 128.206 23.637C128.206 23.4388 128.206 23.2407 128.107 23.0425Z" fill="white"/>
<path d="M60.1513 25.7194C58.9626 25.7194 58.071 24.8276 58.071 23.6386V13.1355C58.071 11.9465 58.9626 11.0547 60.1513 11.0547C61.34 11.0547 62.2316 11.9465 62.2316 13.1355V23.5395C62.2316 24.7285 61.34 25.7194 60.1513 25.7194Z" fill="white"/>
<path d="M52.9203 27.8009H47.6701C46.4814 27.8009 45.5898 26.9091 45.5898 25.7201C45.5898 24.531 46.4814 23.6393 47.6701 23.6393H51.8306V17.3969C51.8306 16.2078 52.7222 15.3161 53.9109 15.3161C55.0996 15.3161 55.9912 16.2078 55.9912 17.3969V24.7292C55.9912 26.4137 54.6043 27.8009 52.9203 27.8009Z" fill="white"/>
<path d="M65.402 31.9619H60.2509C59.0622 31.9619 58.1706 31.0701 58.1706 29.8811C58.1706 28.692 59.0622 27.8003 60.2509 27.8003H64.4114V21.5579C64.4114 20.3688 65.303 19.477 66.4917 19.477C67.6804 19.477 68.572 20.3688 68.572 21.5579V28.8902C68.4729 30.5747 67.0861 31.9619 65.402 31.9619Z" fill="white"/>
<path d="M78.8743 27.7995H73.7232C71.9401 27.7995 70.5533 26.4123 70.5533 24.6288V15.3147C70.5533 14.1257 71.4448 13.2339 72.6335 13.2339C73.8222 13.2339 74.7138 14.1257 74.7138 15.3147V23.6379H78.8743C80.063 23.6379 80.9546 24.5297 80.9546 25.7187C80.9546 26.8087 80.063 27.7995 78.8743 27.7995Z" fill="white"/>
<path d="M66.3928 17.3955C67.5417 17.3955 68.4731 16.4639 68.4731 15.3147C68.4731 14.1655 67.5417 13.2339 66.3928 13.2339C65.2439 13.2339 64.3125 14.1655 64.3125 15.3147C64.3125 16.4639 65.2439 17.3955 66.3928 17.3955Z" fill="white"/>
<path d="M72.6335 34.0427C73.7824 34.0427 74.7138 33.1111 74.7138 31.9619C74.7138 30.8127 73.7824 29.8811 72.6335 29.8811C71.4846 29.8811 70.5533 30.8127 70.5533 31.9619C70.5533 33.1111 71.4846 34.0427 72.6335 34.0427Z" fill="white"/>
<defs>
<linearGradient id="paint0_linear_5811_35655" x1="70.5" y1="0" x2="70.5" y2="40" gradientUnits="userSpaceOnUse">
<stop stop-color="#BCCDD8"/>
<stop offset="1" stop-color="#BCCDD8" stop-opacity="0.24"/>
</linearGradient>
<linearGradient id="paint1_linear_5811_35655" x1="26.3731" y1="6" x2="26.3731" y2="33.7441" gradientUnits="userSpaceOnUse">
<stop stop-color="#96D600"/>
<stop offset="1" stop-color="#009A52"/>
</linearGradient>
</defs>
</svg>
