<svg width="141" height="40" viewBox="0 0 141 40" fill="none" xmlns="http://www.w3.org/2000/svg">
<rect width="141" height="40" rx="4" fill="#033884"/>
<rect x="0.5" y="0.5" width="140" height="39" rx="3.5" stroke="url(#paint0_linear_5811_35662)" stroke-opacity="0.5"/>
<path d="M29.3392 7.12617C29.3392 7.12617 22.4238 5.72455 20.6416 12.2647C20.6416 12.2647 27.4305 14.6429 29.3392 7.12617Z" fill="#0087E1"/>
<path d="M28.8778 30.0724C30.5516 28.2118 31.5466 25.7228 31.4687 23.0044C31.3128 17.5584 26.7917 13.1704 21.3468 13.1738C15.6512 13.1772 11.0556 17.8919 11.2397 23.634C11.408 28.8912 15.6535 33.1921 20.9041 33.4193C23.1516 33.5165 25.2478 32.8801 26.9679 31.7272L23.9129 27.1798C23.1324 27.6998 22.1871 27.9869 21.1684 27.9473C18.7752 27.8546 16.8145 25.9014 16.7106 23.5062C16.5909 20.7358 18.8983 18.4706 21.6811 18.6627C23.9309 18.8176 25.7719 20.6171 25.9786 22.8642C25.9797 22.8823 25.982 22.9004 25.9831 22.9185C26.1491 24.9904 26.8076 26.9922 27.9663 28.7171L28.8766 30.0712L28.8778 30.0724Z" fill="#0087E1"/>
<path d="M101.45 19.0703V24.9802H119.713V27.0978C119.713 27.0978 119.221 28.6247 117.302 28.4271H98.3076V19.0703H101.45Z" fill="white"/>
<path d="M97.2089 19.0703H93.5674V28.4455C93.5674 28.4455 96.8806 28.477 97.2089 26.507V19.0703Z" fill="white"/>
<path d="M78.4091 19.005H88.5792C88.5792 19.005 92.253 19.2838 92.5159 22.6006C92.7787 25.9165 92.5159 28.3802 92.5159 28.3802H77.3429C77.3429 28.3802 75.0453 28.326 73.6848 25.8614C73.442 25.4218 73.3014 24.935 73.2298 24.4377C73.1259 23.7193 72.6796 22.4494 70.8231 22.5027C70.8231 22.5027 69.1743 22.577 69.1743 24.1773C69.1743 25.7775 69.3219 28.8557 66 28.4869V23.1267C66 23.1267 66.041 19.2856 70.9951 19.0059C70.9951 19.0059 75.8505 18.6616 76.4408 23.2246C76.4408 23.2246 76.7036 24.9481 78.8353 25.0635C80.9669 25.1788 89.2018 25.0635 89.2018 25.0635C89.2018 25.0635 89.8254 22.5027 88.0535 22.4372H81.1311C81.1311 22.4372 78.4738 22.1418 78.4083 19.0059L78.4091 19.005Z" fill="white"/>
<path d="M89.8173 31.2043C89.8173 32.2741 88.951 33.1411 87.8822 33.1411C87.0307 33.1411 86.3077 32.5896 86.0492 31.8248C85.7907 32.5896 85.0676 33.1411 84.2162 33.1411C83.425 33.1411 82.7456 32.6665 82.4443 31.9848C82.1439 32.6665 81.4645 33.1411 80.6725 33.1411C79.6036 33.1411 78.7373 32.2741 78.7373 31.2043C78.7373 30.1346 79.6036 29.2676 80.6725 29.2676C81.4636 29.2676 82.143 29.7421 82.4443 30.4239C82.7447 29.7421 83.4241 29.2676 84.2162 29.2676C85.0676 29.2676 85.7907 29.8191 86.0492 30.5838C86.3077 29.8191 87.0307 29.2676 87.8822 29.2676C88.951 29.2676 89.8173 30.1346 89.8173 31.2043Z" fill="white"/>
<path d="M95.3883 33.1411C96.457 33.1411 97.3234 32.274 97.3234 31.2043C97.3234 30.1347 96.457 29.2676 95.3883 29.2676C94.3195 29.2676 93.4531 30.1347 93.4531 31.2043C93.4531 32.274 94.3195 33.1411 95.3883 33.1411Z" fill="white"/>
<path d="M105.686 31.2043C105.686 32.2741 104.819 33.1411 103.751 33.1411C102.904 33.1411 102.183 32.5966 101.922 31.8371C101.661 32.5966 100.94 33.1411 100.093 33.1411C99.0245 33.1411 98.1582 32.2741 98.1582 31.2043C98.1582 30.1346 99.0245 29.2676 100.093 29.2676C100.94 29.2676 101.661 29.8121 101.922 30.5716C102.183 29.8121 102.904 29.2676 103.751 29.2676C104.819 29.2676 105.686 30.1346 105.686 31.2043Z" fill="white"/>
<path d="M81.6746 13.332C81.6746 13.8274 81.4765 14.1247 81.1793 14.4219C80.8822 14.7192 80.3869 14.8183 79.6934 14.8183H79L79.1981 15.9082H80.0897C80.4859 15.9082 80.8822 15.8091 81.1793 15.7101C81.4765 15.611 81.7737 15.3137 81.9718 15.1155C82.1699 14.8183 82.3681 14.521 82.4671 14.2238C82.5662 13.8274 82.6653 13.5302 82.6653 13.1338V10.0622H81.5756V13.332H81.6746Z" fill="white"/>
<path d="M82.269 7.18838C82.0709 7.18838 81.8727 7.28747 81.6746 7.38655C81.4765 7.58473 81.4765 7.68381 81.4765 7.98107C81.4765 8.17924 81.5756 8.37741 81.6746 8.57559C81.8727 8.77376 82.0709 8.77376 82.269 8.77376C82.4671 8.77376 82.6652 8.67467 82.8633 8.57559C83.0615 8.37741 83.0615 8.17924 83.0615 7.98107C83.0615 7.7829 82.9624 7.58473 82.8633 7.38655C82.6652 7.28747 82.4671 7.18838 82.269 7.18838Z" fill="white"/>
<path d="M85.4389 6.49548H84.4483V13.2333H85.4389V6.49548Z" fill="white"/>
<path d="M92.3729 9.07093C92.5711 9.07093 92.6701 8.97185 92.8682 8.87276C92.9673 8.77368 93.0664 8.5755 93.0664 8.37733C93.0664 8.17916 92.9673 7.98099 92.8682 7.8819C92.7692 7.78282 92.5711 7.68373 92.3729 7.68373C92.1748 7.68373 91.9767 7.78282 91.8776 7.8819C91.7786 7.98099 91.6795 8.17916 91.6795 8.37733C91.6795 8.5755 91.7786 8.67459 91.8776 8.87276C91.9767 8.97185 92.1748 9.07093 92.3729 9.07093Z" fill="white"/>
<path d="M94.2555 9.07093C94.4536 9.07093 94.6517 8.97185 94.7508 8.87276C94.8499 8.77368 94.9489 8.5755 94.9489 8.37733C94.9489 8.17916 94.8499 7.98099 94.7508 7.8819C94.6517 7.78282 94.4536 7.68373 94.2555 7.68373C94.0574 7.68373 93.8593 7.78282 93.7602 7.8819C93.6611 7.98099 93.5621 8.17916 93.5621 8.37733C93.5621 8.5755 93.6611 8.67459 93.7602 8.87276C93.8593 8.97185 94.0574 9.07093 94.2555 9.07093Z" fill="white"/>
<path d="M101.387 7.58537C101.586 7.58537 101.784 7.48629 101.982 7.3872C102.18 7.18903 102.18 6.99086 102.18 6.79268C102.18 6.59451 102.081 6.39634 101.982 6.19817C101.784 6 101.685 6 101.387 6C101.189 6 100.991 6.09909 100.793 6.19817C100.595 6.39634 100.595 6.49543 100.595 6.79268C100.595 6.99086 100.694 7.18903 100.793 7.3872C100.991 7.48629 101.189 7.58537 101.387 7.58537Z" fill="white"/>
<path d="M102.973 8.7741C102.775 8.57593 102.576 8.37775 102.378 8.27867C102.18 8.17958 101.883 8.0805 101.586 8.0805C101.289 8.0805 101.091 8.08049 100.892 8.17958C100.694 8.27867 100.496 8.37775 100.298 8.57593C100.1 8.7741 100.001 8.87318 99.9019 9.17044C99.8028 9.36861 99.8028 9.56678 99.8028 9.86404C99.8028 10.3595 99.9019 10.6567 100.1 10.954C100.298 11.2512 100.694 11.4494 101.091 11.4494H102.477C102.477 11.6476 102.477 11.7467 102.378 11.9448C102.279 12.0439 102.081 12.143 101.784 12.143H98.8122C98.6141 12.143 98.416 12.0439 98.2178 11.9448C98.0197 11.8458 97.9207 11.6476 97.9207 11.3503V9.86404H96.831V11.3503C96.831 11.6476 96.831 11.8458 96.7319 11.9448C96.6329 12.0439 96.4348 12.143 96.1376 12.143H91.0855C90.7883 12.143 90.5902 12.0439 90.4911 11.9448C90.293 11.8458 90.194 11.6476 90.194 11.3503V9.96313H89.1043V11.5485C89.1043 12.0439 89.2034 12.5394 89.5005 12.8366C89.7977 13.1339 90.0949 13.233 90.5902 13.233H96.1376C96.5338 13.233 96.831 13.1339 97.1282 12.8366C97.3263 13.0348 97.5244 13.1339 97.8216 13.1339C98.0197 13.233 98.3169 13.233 98.6141 13.233H101.784C102.081 13.233 102.279 13.1339 102.477 13.0348C102.676 12.9357 102.874 12.7375 102.973 12.5394C103.072 12.3412 103.171 12.143 103.27 11.8458C103.369 11.5485 103.369 11.3503 103.369 11.0531V10.3595C103.369 10.0622 103.369 9.76496 103.27 9.56679C103.171 9.26953 103.072 8.97227 102.973 8.7741ZM101.289 10.3595C101.19 10.3595 100.992 10.3595 100.793 10.2604C100.595 10.1613 100.595 10.0622 100.595 9.86404C100.595 9.66587 100.694 9.4677 100.793 9.36861C100.892 9.26953 101.091 9.17044 101.388 9.17044C101.586 9.17044 101.685 9.17044 101.784 9.26953C101.883 9.36861 101.982 9.4677 102.081 9.56679C102.18 9.66587 102.279 9.86404 102.279 9.96313C102.378 10.1613 102.378 10.2604 102.378 10.4586L101.289 10.3595Z" fill="white"/>
<path d="M107.232 14.4224C107.034 14.4224 106.836 14.5214 106.737 14.6205C106.638 14.7196 106.539 14.9178 106.539 15.116C106.539 15.3141 106.638 15.5123 106.737 15.6114C106.836 15.7105 107.034 15.8096 107.232 15.8096C107.43 15.8096 107.628 15.7105 107.727 15.6114C107.826 15.5123 107.925 15.3141 107.925 15.116C107.925 14.9178 107.826 14.8187 107.727 14.6205C107.628 14.4224 107.43 14.4224 107.232 14.4224Z" fill="white"/>
<path d="M109.312 11.3507C109.312 11.4498 109.312 11.5489 109.312 11.6479C109.312 11.747 109.312 11.8461 109.213 11.9452C109.114 12.0443 109.114 12.0443 109.015 12.1434C108.916 12.1434 108.817 12.2425 108.619 12.2425H106.935C106.638 12.2425 106.539 12.1434 106.34 12.0443C106.241 11.9452 106.142 11.747 106.142 11.3507V6.49548H105.053V11.5489C105.053 12.1434 105.251 12.6388 105.548 12.837C105.845 13.1342 106.241 13.2333 106.836 13.2333H108.916C109.411 13.2333 109.808 13.0351 110.105 12.7379C110.402 12.4406 110.501 12.0443 110.501 11.5489V9.96349H109.411V11.3507H109.312Z" fill="white"/>
<path d="M109.015 14.4224C108.817 14.4224 108.619 14.5214 108.52 14.6205C108.421 14.7196 108.321 14.9178 108.321 15.116C108.321 15.3141 108.421 15.5123 108.52 15.6114C108.619 15.7105 108.817 15.8096 109.015 15.8096C109.213 15.8096 109.312 15.7105 109.51 15.6114C109.609 15.5123 109.708 15.3141 109.708 15.116C109.708 14.9178 109.609 14.8187 109.51 14.6205C109.411 14.4224 109.213 14.4224 109.015 14.4224Z" fill="white"/>
<path d="M112.779 13.332C112.779 13.8274 112.581 14.1247 112.284 14.4219C111.987 14.7192 111.492 14.8183 110.798 14.8183H110.501L110.699 15.9082H111.194C111.591 15.9082 111.987 15.8091 112.284 15.7101C112.581 15.611 112.878 15.4128 113.077 15.1155C113.275 14.8183 113.473 14.521 113.572 14.2238C113.671 13.8274 113.77 13.5302 113.77 13.1338V10.0622H112.68V13.332H112.779Z" fill="white"/>
<path d="M120.11 11.2509C120.011 11.0527 119.912 10.8545 119.713 10.6564L117.336 8.17921L116.643 8.87281L119.02 11.35C119.119 11.449 119.218 11.6472 119.218 11.7463C119.218 11.8454 119.218 11.9445 119.119 12.0436C119.02 12.1426 118.921 12.1426 118.723 12.1426H115.256L115.355 13.2326H118.624C119.119 13.2326 119.515 13.1335 119.812 12.8362C120.11 12.539 120.209 12.2417 120.209 11.8454C120.209 11.6472 120.209 11.449 120.11 11.2509Z" fill="white"/>
<defs>
<linearGradient id="paint0_linear_5811_35662" x1="70.5" y1="0" x2="70.5" y2="40" gradientUnits="userSpaceOnUse">
<stop stop-color="#BCCDD8"/>
<stop offset="1" stop-color="#BCCDD8" stop-opacity="0.24"/>
</linearGradient>
</defs>
</svg>
