<svg width="177" height="35" viewBox="0 0 177 35" fill="none" xmlns="http://www.w3.org/2000/svg">
<path d="M150.93 19.7886V3.69141H156.516V19.8762C156.516 21.9542 157.242 23.7232 158.695 25.1873C160.147 26.6514 161.902 27.3834 163.963 27.3834C166.025 27.3834 167.78 26.6514 169.232 25.1873C170.684 23.7232 171.41 21.9542 171.41 19.8762V3.69141H176.997V19.7886C176.997 23.1628 175.76 26.4417 173.453 28.8856C170.854 31.6384 167.693 33.0147 163.963 33.0147C160.234 33.0147 157.068 31.6384 154.474 28.8856C152.166 26.4417 150.93 23.1628 150.93 19.7886Z" fill="#033884"/>
<path d="M117.186 3.59766C113.188 3.59766 109.784 5.0236 106.974 7.87167C104.149 10.7197 102.734 14.1512 102.734 18.1659C102.734 22.1807 104.149 25.635 106.974 28.483C109.784 31.3159 113.188 32.7304 117.186 32.7304C121.184 32.7304 124.573 31.3159 127.398 28.483C130.224 25.635 131.638 22.1959 131.638 18.1659C131.638 14.1359 130.227 10.7197 127.398 7.87167C124.573 5.0236 121.169 3.59766 117.186 3.59766ZM123.506 24.5598C121.755 26.3098 119.649 27.1829 117.186 27.1829C114.724 27.1829 112.602 26.3098 110.866 24.5598C109.115 22.7945 108.238 20.6632 108.238 18.1621C108.238 15.661 109.111 13.5564 110.866 11.7911C112.602 10.0411 114.709 9.16799 117.186 9.16799C119.664 9.16799 121.755 10.0411 123.506 11.7911C125.258 13.5564 126.135 15.68 126.135 18.1621C126.135 20.6442 125.258 22.7945 123.506 24.5598Z" fill="#73CAEB"/>
<path d="M88.1402 8.98879L101.643 8.98116V3.59766L87.6145 3.60528C85.0312 3.60528 82.6938 4.67283 81.0145 6.39617L80.988 6.37329L67.9242 22.1197C67.9242 22.1197 67.9166 22.1044 67.9128 22.0968C67.8864 22.1425 67.8561 22.1883 67.8296 22.234L65.7418 24.7504C64.7244 25.6502 63.5595 26.3479 62.2357 26.8321C60.0004 27.6557 57.7916 27.5947 55.6092 26.6529L70.4848 8.71428L68.3024 6.949C66.3092 5.30955 64.0474 4.27631 61.5209 3.85311C58.9943 3.4299 56.5359 3.65485 54.1455 4.53939C50.3633 5.93483 47.6363 8.46645 45.957 12.1381C44.2625 15.8135 44.1037 19.5537 45.4804 23.3474C46.8647 27.1562 49.3799 29.9166 53.026 31.6247C56.6531 33.3213 60.3559 33.4738 64.1382 32.0822C66.313 31.2815 68.223 30.0767 69.8645 28.4792L69.8758 28.4907L69.9552 28.3915C70.2011 28.1475 70.4431 27.8959 70.6776 27.6328C71.2034 27.0457 71.6762 26.4356 72.0998 25.8027L78.3518 18.2689L78.3594 32.9706H83.7037V23.0919L99.8235 23.0843V17.697L83.6961 17.7046V13.4839C83.6961 11.0057 85.6855 8.99641 88.144 8.9926L88.1402 8.98879ZM51.4337 22.9966C51.1311 22.5009 50.8777 21.9786 50.6772 21.4258C49.8262 19.081 49.9245 16.7667 50.976 14.4867C52.0161 12.2296 53.7068 10.6664 56.0518 9.8047C57.5533 9.25186 59.0738 9.09936 60.6169 9.35481C61.2032 9.45775 61.7856 9.62169 62.3605 9.8352L51.4374 22.9966H51.4337Z" fill="url(#paint0_linear_3203_19784)"/>
<path d="M133.734 32.9374V17.8544C133.734 13.9235 135.134 10.5226 137.887 7.74697C140.58 5.03234 143.859 3.62546 147.645 3.56445V9.26441C145.41 9.32542 143.474 10.1718 141.881 11.7732C140.225 13.4431 139.389 15.4867 139.389 17.8544V32.9374H133.734Z" fill="#73CAEB"/>
<path d="M29.3501 0H4.53868C2.03204 0 0 2.0484 0 4.57522V29.5864C0 32.1132 2.03204 34.1616 4.53868 34.1616H29.3501C31.8568 34.1616 33.8888 32.1132 33.8888 29.5864V4.57522C33.8888 2.0484 31.8568 0 29.3501 0Z" fill="url(#paint1_linear_3203_19784)"/>
<mask id="mask0_3203_19784" style="mask-type:luminance" maskUnits="userSpaceOnUse" x="0" y="0" width="34" height="35">
<path d="M29.3501 0H4.53868C2.03204 0 0 2.0484 0 4.57522V29.5864C0 32.1132 2.03204 34.1616 4.53868 34.1616H29.3501C31.8568 34.1616 33.8888 32.1132 33.8888 29.5864V4.57522C33.8888 2.0484 31.8568 0 29.3501 0Z" fill="white"/>
</mask>
<g mask="url(#mask0_3203_19784)">
<path d="M0.336619 0H0V34.1616H0.336619V0Z" fill="url(#paint2_linear_3203_19784)"/>
<path d="M0.672556 0H0.335938V34.1616H0.672556V0Z" fill="url(#paint3_linear_3203_19784)"/>
<path d="M1.00068 0H0.664062V34.1616H1.00068V0Z" fill="url(#paint4_linear_3203_19784)"/>
<path d="M1.34443 0H1.00781V34.1616H1.34443V0Z" fill="url(#paint5_linear_3203_19784)"/>
<path d="M1.68037 0H1.34375V34.1616H1.68037V0Z" fill="url(#paint6_linear_3203_19784)"/>
<path d="M2.00849 0H1.67188V34.1616H2.00849V0Z" fill="url(#paint7_linear_3203_19784)"/>
<path d="M2.34443 0H2.00781V34.1616H2.34443V0Z" fill="url(#paint8_linear_3203_19784)"/>
<path d="M2.68037 0H2.34375V34.1616H2.68037V0Z" fill="url(#paint9_linear_3203_19784)"/>
<path d="M3.03193 0H2.69531V34.1616H3.03193V0Z" fill="url(#paint10_linear_3203_19784)"/>
<path d="M3.35224 0H3.01562V34.1616H3.35224V0Z" fill="url(#paint11_linear_3203_19784)"/>
<path d="M3.69599 0H3.35938V34.1616H3.69599V0Z" fill="url(#paint12_linear_3203_19784)"/>
<path d="M4.01631 0H3.67969V34.1616H4.01631V0Z" fill="url(#paint13_linear_3203_19784)"/>
<path d="M4.36787 0H4.03125V34.1616H4.36787V0Z" fill="url(#paint14_linear_3203_19784)"/>
<path d="M4.70381 0H4.36719V34.1616H4.70381V0Z" fill="url(#paint15_linear_3203_19784)"/>
<path d="M5.02412 0H4.6875V34.1616H5.02412V0Z" fill="url(#paint16_linear_3203_19784)"/>
<path d="M5.36787 0H5.03125V34.1616H5.36787V0Z" fill="url(#paint17_linear_3203_19784)"/>
<path d="M5.69599 0H5.35938V34.1616H5.69599V0Z" fill="url(#paint18_linear_3203_19784)"/>
<path d="M6.03974 0H5.70312V34.1616H6.03974V0Z" fill="url(#paint19_linear_3203_19784)"/>
<path d="M6.37568 0H6.03906V34.1616H6.37568V0Z" fill="url(#paint20_linear_3203_19784)"/>
<path d="M6.71162 0H6.375V34.1616H6.71162V0Z" fill="url(#paint21_linear_3203_19784)"/>
<path d="M7.03974 0H6.70312V34.1616H7.03974V0Z" fill="url(#paint22_linear_3203_19784)"/>
<path d="M7.38349 0H7.04688V34.1616H7.38349V0Z" fill="url(#paint23_linear_3203_19784)"/>
<path d="M7.72724 0H7.39062V34.1616H7.72724V0Z" fill="url(#paint24_linear_3203_19784)"/>
<path d="M8.04756 0H7.71094V34.1616H8.04756V0Z" fill="url(#paint25_linear_3203_19784)"/>
<path d="M8.38349 0H8.04688V34.1616H8.38349V0Z" fill="url(#paint26_linear_3203_19784)"/>
<path d="M8.72724 0H8.39062V34.1616H8.72724V0Z" fill="url(#paint27_linear_3203_19784)"/>
<path d="M9.05537 0H8.71875V34.1616H9.05537V0Z" fill="url(#paint28_linear_3203_19784)"/>
<path d="M9.39912 0H9.0625V34.1616H9.39912V0Z" fill="url(#paint29_linear_3203_19784)"/>
<path d="M9.72724 0H9.39062V34.1616H9.72724V0Z" fill="url(#paint30_linear_3203_19784)"/>
<path d="M10.071 0H9.73438V34.1616H10.071V0Z" fill="url(#paint31_linear_3203_19784)"/>
<path d="M10.4069 0H10.0703V34.1616H10.4069V0Z" fill="url(#paint32_linear_3203_19784)"/>
<path d="M10.7429 0H10.4062V34.1616H10.7429V0Z" fill="url(#paint33_linear_3203_19784)"/>
<path d="M11.0788 0H10.7422V34.1616H11.0788V0Z" fill="url(#paint34_linear_3203_19784)"/>
<path d="M11.4147 0H11.0781V34.1616H11.4147V0Z" fill="url(#paint35_linear_3203_19784)"/>
<path d="M11.7429 0H11.4062V34.1616H11.7429V0Z" fill="url(#paint36_linear_3203_19784)"/>
<path d="M12.0788 0V34.1616H11.7422V4.36171V0H12.0788Z" fill="url(#paint37_linear_3203_19784)"/>
<path d="M12.4147 0H12.0781V34.1616H12.4147V0Z" fill="url(#paint38_linear_3203_19784)"/>
<path d="M12.7663 0H12.4297V34.1616H12.7663V0Z" fill="url(#paint39_linear_3203_19784)"/>
<path d="M13.0866 0H12.75V34.1616H13.0866V0Z" fill="url(#paint40_linear_3203_19784)"/>
<path d="M13.4226 0H13.0859V34.1616H13.4226V0Z" fill="url(#paint41_linear_3203_19784)"/>
<path d="M13.7585 0H13.4219V34.1616H13.7585V0Z" fill="url(#paint42_linear_3203_19784)"/>
<path d="M14.0866 0H13.75V34.1616H14.0866V0Z" fill="url(#paint43_linear_3203_19784)"/>
<path d="M14.4382 0H14.1016V34.1616H14.4382V0Z" fill="url(#paint44_linear_3203_19784)"/>
<path d="M14.7585 0H14.4219V34.1616H14.7585V0Z" fill="url(#paint45_linear_3203_19784)"/>
<path d="M15.1022 0H14.7656V34.1616H15.1022V0Z" fill="url(#paint46_linear_3203_19784)"/>
<path d="M15.4304 0H15.0938V34.1616H15.4304V0Z" fill="url(#paint47_linear_3203_19784)"/>
<path d="M15.7741 0H15.4375V34.1616H15.7741V0Z" fill="url(#paint48_linear_3203_19784)"/>
<path d="M16.1101 0H15.7734V34.1616H16.1101V0Z" fill="url(#paint49_linear_3203_19784)"/>
<path d="M16.4382 0H16.1016V34.1616H16.4382V0Z" fill="url(#paint50_linear_3203_19784)"/>
<path d="M16.7819 0H16.4453V34.1616H16.7819V0Z" fill="url(#paint51_linear_3203_19784)"/>
<path d="M17.1179 0H16.7812V34.1616H17.1179V0Z" fill="url(#paint52_linear_3203_19784)"/>
<path d="M17.446 0H17.1094V34.1616H17.446V0Z" fill="url(#paint53_linear_3203_19784)"/>
<path d="M17.7819 0H17.4453V34.1616H17.7819V0Z" fill="url(#paint54_linear_3203_19784)"/>
<path d="M18.1257 0H17.7891V34.1616H18.1257V0Z" fill="url(#paint55_linear_3203_19784)"/>
<path d="M18.4538 0H18.1172V34.1616H18.4538V0Z" fill="url(#paint56_linear_3203_19784)"/>
<path d="M18.7897 0H18.4531V34.1616H18.7897V0Z" fill="url(#paint57_linear_3203_19784)"/>
<path d="M19.1179 0H18.7812V34.1616H19.1179V0Z" fill="url(#paint58_linear_3203_19784)"/>
<path d="M19.4616 0H19.125V34.1616H19.4616V0Z" fill="url(#paint59_linear_3203_19784)"/>
<path d="M19.7976 0H19.4609V34.1616H19.7976V0Z" fill="url(#paint60_linear_3203_19784)"/>
<path d="M20.1413 0H19.8047V34.1616H20.1413V0Z" fill="url(#paint61_linear_3203_19784)"/>
<path d="M20.4616 0H20.125V34.1616H20.4616V0Z" fill="url(#paint62_linear_3203_19784)"/>
<path d="M20.8054 0H20.4688V34.1616H20.8054V0Z" fill="url(#paint63_linear_3203_19784)"/>
<path d="M21.1413 0H20.8047V34.1616H21.1413V0Z" fill="url(#paint64_linear_3203_19784)"/>
<path d="M21.4851 0H21.1484V34.1616H21.4851V0Z" fill="url(#paint65_linear_3203_19784)"/>
<path d="M21.8132 0H21.4766V34.1616H21.8132V0Z" fill="url(#paint66_linear_3203_19784)"/>
<path d="M22.1491 0H21.8125V34.1616H22.1491V0Z" fill="url(#paint67_linear_3203_19784)"/>
<path d="M22.4772 0H22.1406V34.1616H22.4772V0Z" fill="url(#paint68_linear_3203_19784)"/>
<path d="M22.8132 0H22.4766V34.1616H22.8132V0Z" fill="url(#paint69_linear_3203_19784)"/>
<path d="M23.1569 0H22.8203V34.1616H23.1569V0Z" fill="url(#paint70_linear_3203_19784)"/>
<path d="M23.4851 0H23.1484V34.1616H23.4851V0Z" fill="url(#paint71_linear_3203_19784)"/>
<path d="M23.821 0H23.4844V34.1616H23.821V0Z" fill="url(#paint72_linear_3203_19784)"/>
<path d="M24.1569 0H23.8203V34.1616H24.1569V0Z" fill="url(#paint73_linear_3203_19784)"/>
<path d="M24.5007 0H24.1641V34.1616H24.5007V0Z" fill="url(#paint74_linear_3203_19784)"/>
<path d="M24.8288 0H24.4922V34.1616H24.8288V0Z" fill="url(#paint75_linear_3203_19784)"/>
<path d="M25.1647 0H24.8281V34.1616H25.1647V0Z" fill="url(#paint76_linear_3203_19784)"/>
<path d="M25.4929 0H25.1562V34.1616H25.4929V0Z" fill="url(#paint77_linear_3203_19784)"/>
<path d="M25.8366 0H25.5V34.1616H25.8366V0Z" fill="url(#paint78_linear_3203_19784)"/>
<path d="M26.1726 0H25.8359V34.1616H26.1726V0Z" fill="url(#paint79_linear_3203_19784)"/>
<path d="M26.5163 0H26.1797V34.1616H26.5163V0Z" fill="url(#paint80_linear_3203_19784)"/>
<path d="M26.8366 0H26.5V34.1616H26.8366V0Z" fill="url(#paint81_linear_3203_19784)"/>
<path d="M27.1804 0H26.8438V34.1616H27.1804V0Z" fill="url(#paint82_linear_3203_19784)"/>
<path d="M27.5163 0H27.1797V34.1616H27.5163V0Z" fill="url(#paint83_linear_3203_19784)"/>
<path d="M27.8601 0H27.5234V34.1616H27.8601V0Z" fill="url(#paint84_linear_3203_19784)"/>
<path d="M28.1882 0H27.8516V34.1616H28.1882V0Z" fill="url(#paint85_linear_3203_19784)"/>
<path d="M28.5085 0H28.1719V34.1616H28.5085V0Z" fill="url(#paint86_linear_3203_19784)"/>
<path d="M28.8522 0H28.5156V34.1616H28.8522V0Z" fill="url(#paint87_linear_3203_19784)"/>
<path d="M29.1882 0H28.8516V34.1616H29.1882V0Z" fill="url(#paint88_linear_3203_19784)"/>
<path d="M29.5319 0H29.1953V34.1616H29.5319V0Z" fill="url(#paint89_linear_3203_19784)"/>
<path d="M29.8601 0H29.5234V34.1616H29.8601V0Z" fill="url(#paint90_linear_3203_19784)"/>
<path d="M30.196 0H29.8594V34.1616H30.196V0Z" fill="url(#paint91_linear_3203_19784)"/>
<path d="M30.5319 0H30.1953V34.1616H30.5319V0Z" fill="url(#paint92_linear_3203_19784)"/>
<path d="M30.8679 0H30.5312V34.1616H30.8679V0Z" fill="url(#paint93_linear_3203_19784)"/>
<path d="M31.2038 0H30.8672V34.1616H31.2038V0Z" fill="url(#paint94_linear_3203_19784)"/>
<path d="M31.5476 0H31.2109V34.1616H31.5476V0Z" fill="url(#paint95_linear_3203_19784)"/>
<path d="M31.8757 0H31.5391V34.1616H31.8757V0Z" fill="url(#paint96_linear_3203_19784)"/>
<path d="M32.2194 0H31.8828V34.1616H32.2194V0Z" fill="url(#paint97_linear_3203_19784)"/>
<path d="M32.5476 0H32.2109V34.1616H32.5476V0Z" fill="url(#paint98_linear_3203_19784)"/>
<path d="M32.8913 0H32.5547V34.1616H32.8913V0Z" fill="url(#paint99_linear_3203_19784)"/>
<path d="M33.2194 0H32.8828V34.1616H33.2194V0Z" fill="url(#paint100_linear_3203_19784)"/>
<path d="M33.5554 0H33.2188V34.1616H33.5554V0Z" fill="url(#paint101_linear_3203_19784)"/>
<path d="M33.8913 0H33.5547V34.1616H33.8913V0Z" fill="url(#paint102_linear_3203_19784)"/>
</g>
<path d="M7.27795 16.7902H30.3912C30.3912 9.31356 24.3547 3.22852 16.9378 3.22852C9.52082 3.22852 3.48438 9.31356 3.48438 16.7902H7.27417H7.27795ZM16.9416 7.04882C20.928 7.04882 24.3585 9.49657 25.8336 12.9775H8.04575C9.52082 9.49657 12.9513 7.04882 16.9378 7.04882H16.9416Z" fill="#19417F"/>
<path d="M26.2532 20.1327C25.0769 24.2046 21.3627 27.2014 16.9489 27.2014C12.535 27.2014 8.61662 24.0483 7.55003 19.8086L4.56963 22.1725L4.42969 22.2983C6.38132 27.3577 11.249 30.9569 16.9489 30.9569C22.6487 30.9569 27.3424 27.4912 29.3622 22.5766L26.2532 20.1365V20.1327Z" fill="white"/>
<defs>
<linearGradient id="paint0_linear_3203_19784" x1="44.55" y1="18.307" x2="101.643" y2="18.307" gradientUnits="userSpaceOnUse">
<stop stop-color="#033884"/>
<stop offset="0.41" stop-color="#2E70AB"/>
<stop offset="1" stop-color="#73CAEB"/>
</linearGradient>
<linearGradient id="paint1_linear_3203_19784" x1="16.9444" y1="0" x2="16.9444" y2="34.1616" gradientUnits="userSpaceOnUse">
<stop stop-color="#73CAEB"/>
<stop offset="0.16" stop-color="#69BCE0"/>
<stop offset="0.44" stop-color="#5197C3"/>
<stop offset="0.83" stop-color="#2B5D95"/>
<stop offset="1" stop-color="#19417F"/>
</linearGradient>
<linearGradient id="paint2_linear_3203_19784" x1="0.166418" y1="0" x2="0.166418" y2="34.1616" gradientUnits="userSpaceOnUse">
<stop stop-color="#73CAEB"/>
<stop offset="0.16" stop-color="#69BCE0"/>
<stop offset="0.44" stop-color="#5197C3"/>
<stop offset="0.83" stop-color="#2B5D95"/>
<stop offset="1" stop-color="#19417F"/>
</linearGradient>
<linearGradient id="paint3_linear_3203_19784" x1="0.502355" y1="0" x2="0.502355" y2="34.1616" gradientUnits="userSpaceOnUse">
<stop stop-color="#73CAEB"/>
<stop offset="0.16" stop-color="#69BCE0"/>
<stop offset="0.44" stop-color="#5197C3"/>
<stop offset="0.83" stop-color="#2B5D95"/>
<stop offset="1" stop-color="#19417F"/>
</linearGradient>
<linearGradient id="paint4_linear_3203_19784" x1="0.834264" y1="0" x2="0.834264" y2="34.1616" gradientUnits="userSpaceOnUse">
<stop stop-color="#73CAEB"/>
<stop offset="0.16" stop-color="#69BCE0"/>
<stop offset="0.44" stop-color="#5197C3"/>
<stop offset="0.83" stop-color="#2B5D95"/>
<stop offset="1" stop-color="#19417F"/>
</linearGradient>
<linearGradient id="paint5_linear_3203_19784" x1="1.17423" y1="0" x2="1.17423" y2="34.1616" gradientUnits="userSpaceOnUse">
<stop stop-color="#73CAEB"/>
<stop offset="0.16" stop-color="#69BCE0"/>
<stop offset="0.44" stop-color="#5197C3"/>
<stop offset="0.83" stop-color="#2B5D95"/>
<stop offset="1" stop-color="#19417F"/>
</linearGradient>
<linearGradient id="paint6_linear_3203_19784" x1="1.51017" y1="0" x2="1.51017" y2="34.1616" gradientUnits="userSpaceOnUse">
<stop stop-color="#73CAEB"/>
<stop offset="0.16" stop-color="#69BCE0"/>
<stop offset="0.44" stop-color="#5197C3"/>
<stop offset="0.83" stop-color="#2B5D95"/>
<stop offset="1" stop-color="#19417F"/>
</linearGradient>
<linearGradient id="paint7_linear_3203_19784" x1="1.83829" y1="0" x2="1.83829" y2="34.1616" gradientUnits="userSpaceOnUse">
<stop stop-color="#73CAEB"/>
<stop offset="0.16" stop-color="#69BCE0"/>
<stop offset="0.44" stop-color="#5197C3"/>
<stop offset="0.83" stop-color="#2B5D95"/>
<stop offset="1" stop-color="#19417F"/>
</linearGradient>
<linearGradient id="paint8_linear_3203_19784" x1="2.17801" y1="0" x2="2.17801" y2="34.1616" gradientUnits="userSpaceOnUse">
<stop stop-color="#73CAEB"/>
<stop offset="0.16" stop-color="#69BCE0"/>
<stop offset="0.44" stop-color="#5197C3"/>
<stop offset="0.83" stop-color="#2B5D95"/>
<stop offset="1" stop-color="#19417F"/>
</linearGradient>
<linearGradient id="paint9_linear_3203_19784" x1="2.51017" y1="0" x2="2.51017" y2="34.1616" gradientUnits="userSpaceOnUse">
<stop stop-color="#73CAEB"/>
<stop offset="0.16" stop-color="#69BCE0"/>
<stop offset="0.44" stop-color="#5197C3"/>
<stop offset="0.83" stop-color="#2B5D95"/>
<stop offset="1" stop-color="#19417F"/>
</linearGradient>
<linearGradient id="paint10_linear_3203_19784" x1="2.86173" y1="0" x2="2.86173" y2="34.1616" gradientUnits="userSpaceOnUse">
<stop stop-color="#73CAEB"/>
<stop offset="0.16" stop-color="#69BCE0"/>
<stop offset="0.44" stop-color="#5197C3"/>
<stop offset="0.83" stop-color="#2B5D95"/>
<stop offset="1" stop-color="#19417F"/>
</linearGradient>
<linearGradient id="paint11_linear_3203_19784" x1="3.18583" y1="0" x2="3.18583" y2="34.1616" gradientUnits="userSpaceOnUse">
<stop stop-color="#73CAEB"/>
<stop offset="0.16" stop-color="#69BCE0"/>
<stop offset="0.44" stop-color="#5197C3"/>
<stop offset="0.83" stop-color="#2B5D95"/>
<stop offset="1" stop-color="#19417F"/>
</linearGradient>
<linearGradient id="paint12_linear_3203_19784" x1="3.52579" y1="0" x2="3.52579" y2="34.1616" gradientUnits="userSpaceOnUse">
<stop stop-color="#73CAEB"/>
<stop offset="0.16" stop-color="#69BCE0"/>
<stop offset="0.44" stop-color="#5197C3"/>
<stop offset="0.83" stop-color="#2B5D95"/>
<stop offset="1" stop-color="#19417F"/>
</linearGradient>
<linearGradient id="paint13_linear_3203_19784" x1="3.84611" y1="0" x2="3.84611" y2="34.1616" gradientUnits="userSpaceOnUse">
<stop stop-color="#73CAEB"/>
<stop offset="0.16" stop-color="#69BCE0"/>
<stop offset="0.44" stop-color="#5197C3"/>
<stop offset="0.83" stop-color="#2B5D95"/>
<stop offset="1" stop-color="#19417F"/>
</linearGradient>
<linearGradient id="paint14_linear_3203_19784" x1="4.19767" y1="0" x2="4.19767" y2="34.1616" gradientUnits="userSpaceOnUse">
<stop stop-color="#73CAEB"/>
<stop offset="0.16" stop-color="#69BCE0"/>
<stop offset="0.44" stop-color="#5197C3"/>
<stop offset="0.83" stop-color="#2B5D95"/>
<stop offset="1" stop-color="#19417F"/>
</linearGradient>
<linearGradient id="paint15_linear_3203_19784" x1="4.53739" y1="0" x2="4.53739" y2="34.1616" gradientUnits="userSpaceOnUse">
<stop stop-color="#73CAEB"/>
<stop offset="0.16" stop-color="#69BCE0"/>
<stop offset="0.44" stop-color="#5197C3"/>
<stop offset="0.83" stop-color="#2B5D95"/>
<stop offset="1" stop-color="#19417F"/>
</linearGradient>
<linearGradient id="paint16_linear_3203_19784" x1="4.85392" y1="0" x2="4.85392" y2="34.1616" gradientUnits="userSpaceOnUse">
<stop stop-color="#73CAEB"/>
<stop offset="0.16" stop-color="#69BCE0"/>
<stop offset="0.44" stop-color="#5197C3"/>
<stop offset="0.83" stop-color="#2B5D95"/>
<stop offset="1" stop-color="#19417F"/>
</linearGradient>
<linearGradient id="paint17_linear_3203_19784" x1="5.19767" y1="0" x2="5.19767" y2="34.1616" gradientUnits="userSpaceOnUse">
<stop stop-color="#73CAEB"/>
<stop offset="0.16" stop-color="#69BCE0"/>
<stop offset="0.44" stop-color="#5197C3"/>
<stop offset="0.83" stop-color="#2B5D95"/>
<stop offset="1" stop-color="#19417F"/>
</linearGradient>
<linearGradient id="paint18_linear_3203_19784" x1="5.52958" y1="0" x2="5.52958" y2="34.1616" gradientUnits="userSpaceOnUse">
<stop stop-color="#73CAEB"/>
<stop offset="0.16" stop-color="#69BCE0"/>
<stop offset="0.44" stop-color="#5197C3"/>
<stop offset="0.83" stop-color="#2B5D95"/>
<stop offset="1" stop-color="#19417F"/>
</linearGradient>
<linearGradient id="paint19_linear_3203_19784" x1="5.86954" y1="0" x2="5.86954" y2="34.1616" gradientUnits="userSpaceOnUse">
<stop stop-color="#73CAEB"/>
<stop offset="0.16" stop-color="#69BCE0"/>
<stop offset="0.44" stop-color="#5197C3"/>
<stop offset="0.83" stop-color="#2B5D95"/>
<stop offset="1" stop-color="#19417F"/>
</linearGradient>
<linearGradient id="paint20_linear_3203_19784" x1="6.20548" y1="0" x2="6.20548" y2="34.1616" gradientUnits="userSpaceOnUse">
<stop stop-color="#73CAEB"/>
<stop offset="0.16" stop-color="#69BCE0"/>
<stop offset="0.44" stop-color="#5197C3"/>
<stop offset="0.83" stop-color="#2B5D95"/>
<stop offset="1" stop-color="#19417F"/>
</linearGradient>
<linearGradient id="paint21_linear_3203_19784" x1="6.54142" y1="0" x2="6.54142" y2="34.1616" gradientUnits="userSpaceOnUse">
<stop stop-color="#73CAEB"/>
<stop offset="0.16" stop-color="#69BCE0"/>
<stop offset="0.44" stop-color="#5197C3"/>
<stop offset="0.83" stop-color="#2B5D95"/>
<stop offset="1" stop-color="#19417F"/>
</linearGradient>
<linearGradient id="paint22_linear_3203_19784" x1="6.87333" y1="0" x2="6.87333" y2="34.1616" gradientUnits="userSpaceOnUse">
<stop stop-color="#73CAEB"/>
<stop offset="0.16" stop-color="#69BCE0"/>
<stop offset="0.44" stop-color="#5197C3"/>
<stop offset="0.83" stop-color="#2B5D95"/>
<stop offset="1" stop-color="#19417F"/>
</linearGradient>
<linearGradient id="paint23_linear_3203_19784" x1="7.21329" y1="0" x2="7.21329" y2="34.1616" gradientUnits="userSpaceOnUse">
<stop stop-color="#73CAEB"/>
<stop offset="0.16" stop-color="#69BCE0"/>
<stop offset="0.44" stop-color="#5197C3"/>
<stop offset="0.83" stop-color="#2B5D95"/>
<stop offset="1" stop-color="#19417F"/>
</linearGradient>
<linearGradient id="paint24_linear_3203_19784" x1="7.55704" y1="0" x2="7.55704" y2="34.1616" gradientUnits="userSpaceOnUse">
<stop stop-color="#73CAEB"/>
<stop offset="0.16" stop-color="#69BCE0"/>
<stop offset="0.44" stop-color="#5197C3"/>
<stop offset="0.83" stop-color="#2B5D95"/>
<stop offset="1" stop-color="#19417F"/>
</linearGradient>
<linearGradient id="paint25_linear_3203_19784" x1="7.88114" y1="0" x2="7.88114" y2="34.1616" gradientUnits="userSpaceOnUse">
<stop stop-color="#73CAEB"/>
<stop offset="0.16" stop-color="#69BCE0"/>
<stop offset="0.44" stop-color="#5197C3"/>
<stop offset="0.83" stop-color="#2B5D95"/>
<stop offset="1" stop-color="#19417F"/>
</linearGradient>
<linearGradient id="paint26_linear_3203_19784" x1="8.21329" y1="0" x2="8.21329" y2="34.1616" gradientUnits="userSpaceOnUse">
<stop stop-color="#73CAEB"/>
<stop offset="0.16" stop-color="#69BCE0"/>
<stop offset="0.44" stop-color="#5197C3"/>
<stop offset="0.83" stop-color="#2B5D95"/>
<stop offset="1" stop-color="#19417F"/>
</linearGradient>
<linearGradient id="paint27_linear_3203_19784" x1="8.55704" y1="0" x2="8.55704" y2="34.1616" gradientUnits="userSpaceOnUse">
<stop stop-color="#73CAEB"/>
<stop offset="0.16" stop-color="#69BCE0"/>
<stop offset="0.44" stop-color="#5197C3"/>
<stop offset="0.83" stop-color="#2B5D95"/>
<stop offset="1" stop-color="#19417F"/>
</linearGradient>
<linearGradient id="paint28_linear_3203_19784" x1="8.88517" y1="0" x2="8.88517" y2="34.1616" gradientUnits="userSpaceOnUse">
<stop stop-color="#73CAEB"/>
<stop offset="0.16" stop-color="#69BCE0"/>
<stop offset="0.44" stop-color="#5197C3"/>
<stop offset="0.83" stop-color="#2B5D95"/>
<stop offset="1" stop-color="#19417F"/>
</linearGradient>
<linearGradient id="paint29_linear_3203_19784" x1="9.2327" y1="0" x2="9.2327" y2="34.1616" gradientUnits="userSpaceOnUse">
<stop stop-color="#73CAEB"/>
<stop offset="0.16" stop-color="#69BCE0"/>
<stop offset="0.44" stop-color="#5197C3"/>
<stop offset="0.83" stop-color="#2B5D95"/>
<stop offset="1" stop-color="#19417F"/>
</linearGradient>
<linearGradient id="paint30_linear_3203_19784" x1="9.55704" y1="0" x2="9.55704" y2="34.1616" gradientUnits="userSpaceOnUse">
<stop stop-color="#73CAEB"/>
<stop offset="0.16" stop-color="#69BCE0"/>
<stop offset="0.44" stop-color="#5197C3"/>
<stop offset="0.83" stop-color="#2B5D95"/>
<stop offset="1" stop-color="#19417F"/>
</linearGradient>
<linearGradient id="paint31_linear_3203_19784" x1="9.90079" y1="0" x2="9.90079" y2="34.1616" gradientUnits="userSpaceOnUse">
<stop stop-color="#73CAEB"/>
<stop offset="0.16" stop-color="#69BCE0"/>
<stop offset="0.44" stop-color="#5197C3"/>
<stop offset="0.83" stop-color="#2B5D95"/>
<stop offset="1" stop-color="#19417F"/>
</linearGradient>
<linearGradient id="paint32_linear_3203_19784" x1="10.2405" y1="0" x2="10.2405" y2="34.1616" gradientUnits="userSpaceOnUse">
<stop stop-color="#73CAEB"/>
<stop offset="0.16" stop-color="#69BCE0"/>
<stop offset="0.44" stop-color="#5197C3"/>
<stop offset="0.83" stop-color="#2B5D95"/>
<stop offset="1" stop-color="#19417F"/>
</linearGradient>
<linearGradient id="paint33_linear_3203_19784" x1="10.5727" y1="0" x2="10.5727" y2="34.1616" gradientUnits="userSpaceOnUse">
<stop stop-color="#73CAEB"/>
<stop offset="0.16" stop-color="#69BCE0"/>
<stop offset="0.44" stop-color="#5197C3"/>
<stop offset="0.83" stop-color="#2B5D95"/>
<stop offset="1" stop-color="#19417F"/>
</linearGradient>
<linearGradient id="paint34_linear_3203_19784" x1="10.9086" y1="0" x2="10.9086" y2="34.1616" gradientUnits="userSpaceOnUse">
<stop stop-color="#73CAEB"/>
<stop offset="0.16" stop-color="#69BCE0"/>
<stop offset="0.44" stop-color="#5197C3"/>
<stop offset="0.83" stop-color="#2B5D95"/>
<stop offset="1" stop-color="#19417F"/>
</linearGradient>
<linearGradient id="paint35_linear_3203_19784" x1="11.2445" y1="0" x2="11.2445" y2="34.1616" gradientUnits="userSpaceOnUse">
<stop stop-color="#73CAEB"/>
<stop offset="0.16" stop-color="#69BCE0"/>
<stop offset="0.44" stop-color="#5197C3"/>
<stop offset="0.83" stop-color="#2B5D95"/>
<stop offset="1" stop-color="#19417F"/>
</linearGradient>
<linearGradient id="paint36_linear_3203_19784" x1="11.5765" y1="0" x2="11.5765" y2="34.1616" gradientUnits="userSpaceOnUse">
<stop stop-color="#73CAEB"/>
<stop offset="0.16" stop-color="#69BCE0"/>
<stop offset="0.44" stop-color="#5197C3"/>
<stop offset="0.83" stop-color="#2B5D95"/>
<stop offset="1" stop-color="#19417F"/>
</linearGradient>
<linearGradient id="paint37_linear_3203_19784" x1="11.9086" y1="0" x2="11.9086" y2="34.1616" gradientUnits="userSpaceOnUse">
<stop stop-color="#73CAEB"/>
<stop offset="0.16" stop-color="#69BCE0"/>
<stop offset="0.44" stop-color="#5197C3"/>
<stop offset="0.83" stop-color="#2B5D95"/>
<stop offset="1" stop-color="#19417F"/>
</linearGradient>
<linearGradient id="paint38_linear_3203_19784" x1="12.2445" y1="0" x2="12.2445" y2="34.1616" gradientUnits="userSpaceOnUse">
<stop stop-color="#73CAEB"/>
<stop offset="0.16" stop-color="#69BCE0"/>
<stop offset="0.44" stop-color="#5197C3"/>
<stop offset="0.83" stop-color="#2B5D95"/>
<stop offset="1" stop-color="#19417F"/>
</linearGradient>
<linearGradient id="paint39_linear_3203_19784" x1="12.5961" y1="0" x2="12.5961" y2="34.1616" gradientUnits="userSpaceOnUse">
<stop stop-color="#73CAEB"/>
<stop offset="0.16" stop-color="#69BCE0"/>
<stop offset="0.44" stop-color="#5197C3"/>
<stop offset="0.83" stop-color="#2B5D95"/>
<stop offset="1" stop-color="#19417F"/>
</linearGradient>
<linearGradient id="paint40_linear_3203_19784" x1="12.9202" y1="0" x2="12.9202" y2="34.1616" gradientUnits="userSpaceOnUse">
<stop stop-color="#73CAEB"/>
<stop offset="0.16" stop-color="#69BCE0"/>
<stop offset="0.44" stop-color="#5197C3"/>
<stop offset="0.83" stop-color="#2B5D95"/>
<stop offset="1" stop-color="#19417F"/>
</linearGradient>
<linearGradient id="paint41_linear_3203_19784" x1="13.2524" y1="0" x2="13.2524" y2="34.1616" gradientUnits="userSpaceOnUse">
<stop stop-color="#73CAEB"/>
<stop offset="0.16" stop-color="#69BCE0"/>
<stop offset="0.44" stop-color="#5197C3"/>
<stop offset="0.83" stop-color="#2B5D95"/>
<stop offset="1" stop-color="#19417F"/>
</linearGradient>
<linearGradient id="paint42_linear_3203_19784" x1="13.5883" y1="0" x2="13.5883" y2="34.1616" gradientUnits="userSpaceOnUse">
<stop stop-color="#73CAEB"/>
<stop offset="0.16" stop-color="#69BCE0"/>
<stop offset="0.44" stop-color="#5197C3"/>
<stop offset="0.83" stop-color="#2B5D95"/>
<stop offset="1" stop-color="#19417F"/>
</linearGradient>
<linearGradient id="paint43_linear_3203_19784" x1="13.9202" y1="0" x2="13.9202" y2="34.1616" gradientUnits="userSpaceOnUse">
<stop stop-color="#73CAEB"/>
<stop offset="0.16" stop-color="#69BCE0"/>
<stop offset="0.44" stop-color="#5197C3"/>
<stop offset="0.83" stop-color="#2B5D95"/>
<stop offset="1" stop-color="#19417F"/>
</linearGradient>
<linearGradient id="paint44_linear_3203_19784" x1="14.268" y1="0" x2="14.268" y2="34.1616" gradientUnits="userSpaceOnUse">
<stop stop-color="#73CAEB"/>
<stop offset="0.16" stop-color="#69BCE0"/>
<stop offset="0.44" stop-color="#5197C3"/>
<stop offset="0.83" stop-color="#2B5D95"/>
<stop offset="1" stop-color="#19417F"/>
</linearGradient>
<linearGradient id="paint45_linear_3203_19784" x1="14.5883" y1="0" x2="14.5883" y2="34.1616" gradientUnits="userSpaceOnUse">
<stop stop-color="#73CAEB"/>
<stop offset="0.16" stop-color="#69BCE0"/>
<stop offset="0.44" stop-color="#5197C3"/>
<stop offset="0.83" stop-color="#2B5D95"/>
<stop offset="1" stop-color="#19417F"/>
</linearGradient>
<linearGradient id="paint46_linear_3203_19784" x1="14.932" y1="0" x2="14.932" y2="34.1616" gradientUnits="userSpaceOnUse">
<stop stop-color="#73CAEB"/>
<stop offset="0.16" stop-color="#69BCE0"/>
<stop offset="0.44" stop-color="#5197C3"/>
<stop offset="0.83" stop-color="#2B5D95"/>
<stop offset="1" stop-color="#19417F"/>
</linearGradient>
<linearGradient id="paint47_linear_3203_19784" x1="15.264" y1="0" x2="15.264" y2="34.1616" gradientUnits="userSpaceOnUse">
<stop stop-color="#73CAEB"/>
<stop offset="0.16" stop-color="#69BCE0"/>
<stop offset="0.44" stop-color="#5197C3"/>
<stop offset="0.83" stop-color="#2B5D95"/>
<stop offset="1" stop-color="#19417F"/>
</linearGradient>
<linearGradient id="paint48_linear_3203_19784" x1="15.6039" y1="0" x2="15.6039" y2="34.1616" gradientUnits="userSpaceOnUse">
<stop stop-color="#73CAEB"/>
<stop offset="0.16" stop-color="#69BCE0"/>
<stop offset="0.44" stop-color="#5197C3"/>
<stop offset="0.83" stop-color="#2B5D95"/>
<stop offset="1" stop-color="#19417F"/>
</linearGradient>
<linearGradient id="paint49_linear_3203_19784" x1="15.9399" y1="0" x2="15.9399" y2="34.1616" gradientUnits="userSpaceOnUse">
<stop stop-color="#73CAEB"/>
<stop offset="0.16" stop-color="#69BCE0"/>
<stop offset="0.44" stop-color="#5197C3"/>
<stop offset="0.83" stop-color="#2B5D95"/>
<stop offset="1" stop-color="#19417F"/>
</linearGradient>
<linearGradient id="paint50_linear_3203_19784" x1="16.2718" y1="0" x2="16.2718" y2="34.1616" gradientUnits="userSpaceOnUse">
<stop stop-color="#73CAEB"/>
<stop offset="0.16" stop-color="#69BCE0"/>
<stop offset="0.44" stop-color="#5197C3"/>
<stop offset="0.83" stop-color="#2B5D95"/>
<stop offset="1" stop-color="#19417F"/>
</linearGradient>
<linearGradient id="paint51_linear_3203_19784" x1="16.6117" y1="0" x2="16.6117" y2="34.1616" gradientUnits="userSpaceOnUse">
<stop stop-color="#73CAEB"/>
<stop offset="0.16" stop-color="#69BCE0"/>
<stop offset="0.44" stop-color="#5197C3"/>
<stop offset="0.83" stop-color="#2B5D95"/>
<stop offset="1" stop-color="#19417F"/>
</linearGradient>
<linearGradient id="paint52_linear_3203_19784" x1="16.9477" y1="0" x2="16.9477" y2="34.1616" gradientUnits="userSpaceOnUse">
<stop stop-color="#73CAEB"/>
<stop offset="0.16" stop-color="#69BCE0"/>
<stop offset="0.44" stop-color="#5197C3"/>
<stop offset="0.83" stop-color="#2B5D95"/>
<stop offset="1" stop-color="#19417F"/>
</linearGradient>
<linearGradient id="paint53_linear_3203_19784" x1="17.2758" y1="0" x2="17.2758" y2="34.1616" gradientUnits="userSpaceOnUse">
<stop stop-color="#73CAEB"/>
<stop offset="0.16" stop-color="#69BCE0"/>
<stop offset="0.44" stop-color="#5197C3"/>
<stop offset="0.83" stop-color="#2B5D95"/>
<stop offset="1" stop-color="#19417F"/>
</linearGradient>
<linearGradient id="paint54_linear_3203_19784" x1="17.6155" y1="0" x2="17.6155" y2="34.1616" gradientUnits="userSpaceOnUse">
<stop stop-color="#73CAEB"/>
<stop offset="0.16" stop-color="#69BCE0"/>
<stop offset="0.44" stop-color="#5197C3"/>
<stop offset="0.83" stop-color="#2B5D95"/>
<stop offset="1" stop-color="#19417F"/>
</linearGradient>
<linearGradient id="paint55_linear_3203_19784" x1="17.9555" y1="0" x2="17.9555" y2="34.1616" gradientUnits="userSpaceOnUse">
<stop stop-color="#73CAEB"/>
<stop offset="0.16" stop-color="#69BCE0"/>
<stop offset="0.44" stop-color="#5197C3"/>
<stop offset="0.83" stop-color="#2B5D95"/>
<stop offset="1" stop-color="#19417F"/>
</linearGradient>
<linearGradient id="paint56_linear_3203_19784" x1="18.2836" y1="0" x2="18.2836" y2="34.1616" gradientUnits="userSpaceOnUse">
<stop stop-color="#73CAEB"/>
<stop offset="0.16" stop-color="#69BCE0"/>
<stop offset="0.44" stop-color="#5197C3"/>
<stop offset="0.83" stop-color="#2B5D95"/>
<stop offset="1" stop-color="#19417F"/>
</linearGradient>
<linearGradient id="paint57_linear_3203_19784" x1="18.6233" y1="0" x2="18.6233" y2="34.1616" gradientUnits="userSpaceOnUse">
<stop stop-color="#73CAEB"/>
<stop offset="0.16" stop-color="#69BCE0"/>
<stop offset="0.44" stop-color="#5197C3"/>
<stop offset="0.83" stop-color="#2B5D95"/>
<stop offset="1" stop-color="#19417F"/>
</linearGradient>
<linearGradient id="paint58_linear_3203_19784" x1="18.9477" y1="0" x2="18.9477" y2="34.1616" gradientUnits="userSpaceOnUse">
<stop stop-color="#73CAEB"/>
<stop offset="0.16" stop-color="#69BCE0"/>
<stop offset="0.44" stop-color="#5197C3"/>
<stop offset="0.83" stop-color="#2B5D95"/>
<stop offset="1" stop-color="#19417F"/>
</linearGradient>
<linearGradient id="paint59_linear_3203_19784" x1="19.2914" y1="0" x2="19.2914" y2="34.1616" gradientUnits="userSpaceOnUse">
<stop stop-color="#73CAEB"/>
<stop offset="0.16" stop-color="#69BCE0"/>
<stop offset="0.44" stop-color="#5197C3"/>
<stop offset="0.83" stop-color="#2B5D95"/>
<stop offset="1" stop-color="#19417F"/>
</linearGradient>
<linearGradient id="paint60_linear_3203_19784" x1="19.6274" y1="0" x2="19.6274" y2="34.1616" gradientUnits="userSpaceOnUse">
<stop stop-color="#73CAEB"/>
<stop offset="0.16" stop-color="#69BCE0"/>
<stop offset="0.44" stop-color="#5197C3"/>
<stop offset="0.83" stop-color="#2B5D95"/>
<stop offset="1" stop-color="#19417F"/>
</linearGradient>
<linearGradient id="paint61_linear_3203_19784" x1="19.9749" y1="0" x2="19.9749" y2="34.1616" gradientUnits="userSpaceOnUse">
<stop stop-color="#73CAEB"/>
<stop offset="0.16" stop-color="#69BCE0"/>
<stop offset="0.44" stop-color="#5197C3"/>
<stop offset="0.83" stop-color="#2B5D95"/>
<stop offset="1" stop-color="#19417F"/>
</linearGradient>
<linearGradient id="paint62_linear_3203_19784" x1="20.2914" y1="0" x2="20.2914" y2="34.1616" gradientUnits="userSpaceOnUse">
<stop stop-color="#73CAEB"/>
<stop offset="0.16" stop-color="#69BCE0"/>
<stop offset="0.44" stop-color="#5197C3"/>
<stop offset="0.83" stop-color="#2B5D95"/>
<stop offset="1" stop-color="#19417F"/>
</linearGradient>
<linearGradient id="paint63_linear_3203_19784" x1="20.6352" y1="0" x2="20.6352" y2="34.1616" gradientUnits="userSpaceOnUse">
<stop stop-color="#73CAEB"/>
<stop offset="0.16" stop-color="#69BCE0"/>
<stop offset="0.44" stop-color="#5197C3"/>
<stop offset="0.83" stop-color="#2B5D95"/>
<stop offset="1" stop-color="#19417F"/>
</linearGradient>
<linearGradient id="paint64_linear_3203_19784" x1="20.9749" y1="0" x2="20.9749" y2="34.1616" gradientUnits="userSpaceOnUse">
<stop stop-color="#73CAEB"/>
<stop offset="0.16" stop-color="#69BCE0"/>
<stop offset="0.44" stop-color="#5197C3"/>
<stop offset="0.83" stop-color="#2B5D95"/>
<stop offset="1" stop-color="#19417F"/>
</linearGradient>
<linearGradient id="paint65_linear_3203_19784" x1="21.3149" y1="0" x2="21.3149" y2="34.1616" gradientUnits="userSpaceOnUse">
<stop stop-color="#73CAEB"/>
<stop offset="0.16" stop-color="#69BCE0"/>
<stop offset="0.44" stop-color="#5197C3"/>
<stop offset="0.83" stop-color="#2B5D95"/>
<stop offset="1" stop-color="#19417F"/>
</linearGradient>
<linearGradient id="paint66_linear_3203_19784" x1="21.643" y1="0" x2="21.643" y2="34.1616" gradientUnits="userSpaceOnUse">
<stop stop-color="#73CAEB"/>
<stop offset="0.16" stop-color="#69BCE0"/>
<stop offset="0.44" stop-color="#5197C3"/>
<stop offset="0.83" stop-color="#2B5D95"/>
<stop offset="1" stop-color="#19417F"/>
</linearGradient>
<linearGradient id="paint67_linear_3203_19784" x1="21.9789" y1="0" x2="21.9789" y2="34.1616" gradientUnits="userSpaceOnUse">
<stop stop-color="#73CAEB"/>
<stop offset="0.16" stop-color="#69BCE0"/>
<stop offset="0.44" stop-color="#5197C3"/>
<stop offset="0.83" stop-color="#2B5D95"/>
<stop offset="1" stop-color="#19417F"/>
</linearGradient>
<linearGradient id="paint68_linear_3203_19784" x1="22.3108" y1="0" x2="22.3108" y2="34.1616" gradientUnits="userSpaceOnUse">
<stop stop-color="#73CAEB"/>
<stop offset="0.16" stop-color="#69BCE0"/>
<stop offset="0.44" stop-color="#5197C3"/>
<stop offset="0.83" stop-color="#2B5D95"/>
<stop offset="1" stop-color="#19417F"/>
</linearGradient>
<linearGradient id="paint69_linear_3203_19784" x1="22.643" y1="0" x2="22.643" y2="34.1616" gradientUnits="userSpaceOnUse">
<stop stop-color="#73CAEB"/>
<stop offset="0.16" stop-color="#69BCE0"/>
<stop offset="0.44" stop-color="#5197C3"/>
<stop offset="0.83" stop-color="#2B5D95"/>
<stop offset="1" stop-color="#19417F"/>
</linearGradient>
<linearGradient id="paint70_linear_3203_19784" x1="22.9867" y1="0" x2="22.9867" y2="34.1616" gradientUnits="userSpaceOnUse">
<stop stop-color="#73CAEB"/>
<stop offset="0.16" stop-color="#69BCE0"/>
<stop offset="0.44" stop-color="#5197C3"/>
<stop offset="0.83" stop-color="#2B5D95"/>
<stop offset="1" stop-color="#19417F"/>
</linearGradient>
<linearGradient id="paint71_linear_3203_19784" x1="23.3186" y1="0" x2="23.3186" y2="34.1616" gradientUnits="userSpaceOnUse">
<stop stop-color="#73CAEB"/>
<stop offset="0.16" stop-color="#69BCE0"/>
<stop offset="0.44" stop-color="#5197C3"/>
<stop offset="0.83" stop-color="#2B5D95"/>
<stop offset="1" stop-color="#19417F"/>
</linearGradient>
<linearGradient id="paint72_linear_3203_19784" x1="23.6508" y1="0" x2="23.6508" y2="34.1616" gradientUnits="userSpaceOnUse">
<stop stop-color="#73CAEB"/>
<stop offset="0.16" stop-color="#69BCE0"/>
<stop offset="0.44" stop-color="#5197C3"/>
<stop offset="0.83" stop-color="#2B5D95"/>
<stop offset="1" stop-color="#19417F"/>
</linearGradient>
<linearGradient id="paint73_linear_3203_19784" x1="23.9867" y1="0" x2="23.9867" y2="34.1616" gradientUnits="userSpaceOnUse">
<stop stop-color="#73CAEB"/>
<stop offset="0.16" stop-color="#69BCE0"/>
<stop offset="0.44" stop-color="#5197C3"/>
<stop offset="0.83" stop-color="#2B5D95"/>
<stop offset="1" stop-color="#19417F"/>
</linearGradient>
<linearGradient id="paint74_linear_3203_19784" x1="24.3305" y1="0" x2="24.3305" y2="34.1616" gradientUnits="userSpaceOnUse">
<stop stop-color="#73CAEB"/>
<stop offset="0.16" stop-color="#69BCE0"/>
<stop offset="0.44" stop-color="#5197C3"/>
<stop offset="0.83" stop-color="#2B5D95"/>
<stop offset="1" stop-color="#19417F"/>
</linearGradient>
<linearGradient id="paint75_linear_3203_19784" x1="24.6624" y1="0" x2="24.6624" y2="34.1616" gradientUnits="userSpaceOnUse">
<stop stop-color="#73CAEB"/>
<stop offset="0.16" stop-color="#69BCE0"/>
<stop offset="0.44" stop-color="#5197C3"/>
<stop offset="0.83" stop-color="#2B5D95"/>
<stop offset="1" stop-color="#19417F"/>
</linearGradient>
<linearGradient id="paint76_linear_3203_19784" x1="24.9945" y1="0" x2="24.9945" y2="34.1616" gradientUnits="userSpaceOnUse">
<stop stop-color="#73CAEB"/>
<stop offset="0.16" stop-color="#69BCE0"/>
<stop offset="0.44" stop-color="#5197C3"/>
<stop offset="0.83" stop-color="#2B5D95"/>
<stop offset="1" stop-color="#19417F"/>
</linearGradient>
<linearGradient id="paint77_linear_3203_19784" x1="25.3227" y1="0" x2="25.3227" y2="34.1616" gradientUnits="userSpaceOnUse">
<stop stop-color="#73CAEB"/>
<stop offset="0.16" stop-color="#69BCE0"/>
<stop offset="0.44" stop-color="#5197C3"/>
<stop offset="0.83" stop-color="#2B5D95"/>
<stop offset="1" stop-color="#19417F"/>
</linearGradient>
<linearGradient id="paint78_linear_3203_19784" x1="25.6702" y1="0" x2="25.6702" y2="34.1616" gradientUnits="userSpaceOnUse">
<stop stop-color="#73CAEB"/>
<stop offset="0.16" stop-color="#69BCE0"/>
<stop offset="0.44" stop-color="#5197C3"/>
<stop offset="0.83" stop-color="#2B5D95"/>
<stop offset="1" stop-color="#19417F"/>
</linearGradient>
<linearGradient id="paint79_linear_3203_19784" x1="26.0024" y1="0" x2="26.0024" y2="34.1616" gradientUnits="userSpaceOnUse">
<stop stop-color="#73CAEB"/>
<stop offset="0.16" stop-color="#69BCE0"/>
<stop offset="0.44" stop-color="#5197C3"/>
<stop offset="0.83" stop-color="#2B5D95"/>
<stop offset="1" stop-color="#19417F"/>
</linearGradient>
<linearGradient id="paint80_linear_3203_19784" x1="26.3461" y1="0" x2="26.3461" y2="34.1616" gradientUnits="userSpaceOnUse">
<stop stop-color="#73CAEB"/>
<stop offset="0.16" stop-color="#69BCE0"/>
<stop offset="0.44" stop-color="#5197C3"/>
<stop offset="0.83" stop-color="#2B5D95"/>
<stop offset="1" stop-color="#19417F"/>
</linearGradient>
<linearGradient id="paint81_linear_3203_19784" x1="26.6664" y1="0" x2="26.6664" y2="34.1616" gradientUnits="userSpaceOnUse">
<stop stop-color="#73CAEB"/>
<stop offset="0.16" stop-color="#69BCE0"/>
<stop offset="0.44" stop-color="#5197C3"/>
<stop offset="0.83" stop-color="#2B5D95"/>
<stop offset="1" stop-color="#19417F"/>
</linearGradient>
<linearGradient id="paint82_linear_3203_19784" x1="27.014" y1="0" x2="27.014" y2="34.1616" gradientUnits="userSpaceOnUse">
<stop stop-color="#73CAEB"/>
<stop offset="0.16" stop-color="#69BCE0"/>
<stop offset="0.44" stop-color="#5197C3"/>
<stop offset="0.83" stop-color="#2B5D95"/>
<stop offset="1" stop-color="#19417F"/>
</linearGradient>
<linearGradient id="paint83_linear_3203_19784" x1="27.3461" y1="0" x2="27.3461" y2="34.1616" gradientUnits="userSpaceOnUse">
<stop stop-color="#73CAEB"/>
<stop offset="0.16" stop-color="#69BCE0"/>
<stop offset="0.44" stop-color="#5197C3"/>
<stop offset="0.83" stop-color="#2B5D95"/>
<stop offset="1" stop-color="#19417F"/>
</linearGradient>
<linearGradient id="paint84_linear_3203_19784" x1="27.6899" y1="0" x2="27.6899" y2="34.1616" gradientUnits="userSpaceOnUse">
<stop stop-color="#73CAEB"/>
<stop offset="0.16" stop-color="#69BCE0"/>
<stop offset="0.44" stop-color="#5197C3"/>
<stop offset="0.83" stop-color="#2B5D95"/>
<stop offset="1" stop-color="#19417F"/>
</linearGradient>
<linearGradient id="paint85_linear_3203_19784" x1="28.0218" y1="0" x2="28.0218" y2="34.1616" gradientUnits="userSpaceOnUse">
<stop stop-color="#73CAEB"/>
<stop offset="0.16" stop-color="#69BCE0"/>
<stop offset="0.44" stop-color="#5197C3"/>
<stop offset="0.83" stop-color="#2B5D95"/>
<stop offset="1" stop-color="#19417F"/>
</linearGradient>
<linearGradient id="paint86_linear_3203_19784" x1="28.3383" y1="0" x2="28.3383" y2="34.1616" gradientUnits="userSpaceOnUse">
<stop stop-color="#73CAEB"/>
<stop offset="0.16" stop-color="#69BCE0"/>
<stop offset="0.44" stop-color="#5197C3"/>
<stop offset="0.83" stop-color="#2B5D95"/>
<stop offset="1" stop-color="#19417F"/>
</linearGradient>
<linearGradient id="paint87_linear_3203_19784" x1="28.682" y1="0" x2="28.682" y2="34.1616" gradientUnits="userSpaceOnUse">
<stop stop-color="#73CAEB"/>
<stop offset="0.16" stop-color="#69BCE0"/>
<stop offset="0.44" stop-color="#5197C3"/>
<stop offset="0.83" stop-color="#2B5D95"/>
<stop offset="1" stop-color="#19417F"/>
</linearGradient>
<linearGradient id="paint88_linear_3203_19784" x1="29.018" y1="0" x2="29.018" y2="34.1616" gradientUnits="userSpaceOnUse">
<stop stop-color="#73CAEB"/>
<stop offset="0.16" stop-color="#69BCE0"/>
<stop offset="0.44" stop-color="#5197C3"/>
<stop offset="0.83" stop-color="#2B5D95"/>
<stop offset="1" stop-color="#19417F"/>
</linearGradient>
<linearGradient id="paint89_linear_3203_19784" x1="29.3655" y1="0" x2="29.3655" y2="34.1616" gradientUnits="userSpaceOnUse">
<stop stop-color="#73CAEB"/>
<stop offset="0.16" stop-color="#69BCE0"/>
<stop offset="0.44" stop-color="#5197C3"/>
<stop offset="0.83" stop-color="#2B5D95"/>
<stop offset="1" stop-color="#19417F"/>
</linearGradient>
<linearGradient id="paint90_linear_3203_19784" x1="29.6899" y1="0" x2="29.6899" y2="34.1616" gradientUnits="userSpaceOnUse">
<stop stop-color="#73CAEB"/>
<stop offset="0.16" stop-color="#69BCE0"/>
<stop offset="0.44" stop-color="#5197C3"/>
<stop offset="0.83" stop-color="#2B5D95"/>
<stop offset="1" stop-color="#19417F"/>
</linearGradient>
<linearGradient id="paint91_linear_3203_19784" x1="30.0258" y1="0" x2="30.0258" y2="34.1616" gradientUnits="userSpaceOnUse">
<stop stop-color="#73CAEB"/>
<stop offset="0.16" stop-color="#69BCE0"/>
<stop offset="0.44" stop-color="#5197C3"/>
<stop offset="0.83" stop-color="#2B5D95"/>
<stop offset="1" stop-color="#19417F"/>
</linearGradient>
<linearGradient id="paint92_linear_3203_19784" x1="30.3655" y1="0" x2="30.3655" y2="34.1616" gradientUnits="userSpaceOnUse">
<stop stop-color="#73CAEB"/>
<stop offset="0.16" stop-color="#69BCE0"/>
<stop offset="0.44" stop-color="#5197C3"/>
<stop offset="0.83" stop-color="#2B5D95"/>
<stop offset="1" stop-color="#19417F"/>
</linearGradient>
<linearGradient id="paint93_linear_3203_19784" x1="30.6977" y1="0" x2="30.6977" y2="34.1616" gradientUnits="userSpaceOnUse">
<stop stop-color="#73CAEB"/>
<stop offset="0.16" stop-color="#69BCE0"/>
<stop offset="0.44" stop-color="#5197C3"/>
<stop offset="0.83" stop-color="#2B5D95"/>
<stop offset="1" stop-color="#19417F"/>
</linearGradient>
<linearGradient id="paint94_linear_3203_19784" x1="31.0336" y1="0" x2="31.0336" y2="34.1616" gradientUnits="userSpaceOnUse">
<stop stop-color="#73CAEB"/>
<stop offset="0.16" stop-color="#69BCE0"/>
<stop offset="0.44" stop-color="#5197C3"/>
<stop offset="0.83" stop-color="#2B5D95"/>
<stop offset="1" stop-color="#19417F"/>
</linearGradient>
<linearGradient id="paint95_linear_3203_19784" x1="31.3774" y1="0" x2="31.3774" y2="34.1616" gradientUnits="userSpaceOnUse">
<stop stop-color="#73CAEB"/>
<stop offset="0.16" stop-color="#69BCE0"/>
<stop offset="0.44" stop-color="#5197C3"/>
<stop offset="0.83" stop-color="#2B5D95"/>
<stop offset="1" stop-color="#19417F"/>
</linearGradient>
<linearGradient id="paint96_linear_3203_19784" x1="31.7093" y1="0" x2="31.7093" y2="34.1616" gradientUnits="userSpaceOnUse">
<stop stop-color="#73CAEB"/>
<stop offset="0.16" stop-color="#69BCE0"/>
<stop offset="0.44" stop-color="#5197C3"/>
<stop offset="0.83" stop-color="#2B5D95"/>
<stop offset="1" stop-color="#19417F"/>
</linearGradient>
<linearGradient id="paint97_linear_3203_19784" x1="32.0492" y1="0" x2="32.0492" y2="34.1616" gradientUnits="userSpaceOnUse">
<stop stop-color="#73CAEB"/>
<stop offset="0.16" stop-color="#69BCE0"/>
<stop offset="0.44" stop-color="#5197C3"/>
<stop offset="0.83" stop-color="#2B5D95"/>
<stop offset="1" stop-color="#19417F"/>
</linearGradient>
<linearGradient id="paint98_linear_3203_19784" x1="32.3774" y1="0" x2="32.3774" y2="34.1616" gradientUnits="userSpaceOnUse">
<stop stop-color="#73CAEB"/>
<stop offset="0.16" stop-color="#69BCE0"/>
<stop offset="0.44" stop-color="#5197C3"/>
<stop offset="0.83" stop-color="#2B5D95"/>
<stop offset="1" stop-color="#19417F"/>
</linearGradient>
<linearGradient id="paint99_linear_3203_19784" x1="32.7249" y1="0" x2="32.7249" y2="34.1616" gradientUnits="userSpaceOnUse">
<stop stop-color="#73CAEB"/>
<stop offset="0.16" stop-color="#69BCE0"/>
<stop offset="0.44" stop-color="#5197C3"/>
<stop offset="0.83" stop-color="#2B5D95"/>
<stop offset="1" stop-color="#19417F"/>
</linearGradient>
<linearGradient id="paint100_linear_3203_19784" x1="33.0492" y1="0" x2="33.0492" y2="34.1616" gradientUnits="userSpaceOnUse">
<stop stop-color="#73CAEB"/>
<stop offset="0.16" stop-color="#69BCE0"/>
<stop offset="0.44" stop-color="#5197C3"/>
<stop offset="0.83" stop-color="#2B5D95"/>
<stop offset="1" stop-color="#19417F"/>
</linearGradient>
<linearGradient id="paint101_linear_3203_19784" x1="33.3852" y1="0" x2="33.3852" y2="34.1616" gradientUnits="userSpaceOnUse">
<stop stop-color="#73CAEB"/>
<stop offset="0.16" stop-color="#69BCE0"/>
<stop offset="0.44" stop-color="#5197C3"/>
<stop offset="0.83" stop-color="#2B5D95"/>
<stop offset="1" stop-color="#19417F"/>
</linearGradient>
<linearGradient id="paint102_linear_3203_19784" x1="33.7211" y1="0" x2="33.7211" y2="34.1616" gradientUnits="userSpaceOnUse">
<stop stop-color="#73CAEB"/>
<stop offset="0.16" stop-color="#69BCE0"/>
<stop offset="0.44" stop-color="#5197C3"/>
<stop offset="0.83" stop-color="#2B5D95"/>
<stop offset="1" stop-color="#19417F"/>
</linearGradient>
</defs>
</svg>
